<svg viewBox="120 120 1532 1264" xmlns="http://www.w3.org/2000/svg">
<rect transform="rotate(-6.1758)" x="986.91" y="1076.7" width="156.14" height="219.87" ry="28.165" fill="#fff" stroke="#000" stroke-linecap="round" stroke-linejoin="round" stroke-width=".43419"/>
<path d="m1157.7 1057.8c2.9503-2.2209 0.9486-3.3856 3.205-5.764 7.5451-7.9532 16.324-18.08 20.95-29.306 5.2055 14.281 15.584 18.695 25.62 26.499 1.8013 1.4006 1.555 2.8474 3.4621 4.5482zm56.649 0.1149c3.1354 9.5323-1.6202 19.66-10.622 22.621-9.0016 2.9608-18.84-2.3666-21.976-11.899-3.1353-9.5324 1.6201-19.66 10.622-22.621 9.0017-2.9608 18.84 2.3665 21.976 11.899zm-28.012 4.3933c3.1353 9.5324-1.6202 19.66-10.622 22.621-9.0015 2.9607-18.84-2.3665-21.976-11.899-3.1354-9.5323 1.62-19.66 10.622-22.621 9.0017-2.9608 18.84 2.3666 21.976 11.899z" stroke="#000" stroke-width=".78433px"/>
<rect transform="rotate(2.1635)" x="1203.7" y="907.03" width="156.14" height="219.87" ry="28.165" fill="#fff" stroke="#000" stroke-linecap="round" stroke-linejoin="round" stroke-width=".43419"/>
<path d="m526.62 556.89c-23.825-15.712-49.297-19.903-79.839 11.406-45.698-0.7781-37.492 36.946-38.019 68.433-13.762 46.156-94.141 90.23-11.406 139.4-64.22 35.128-60.758 89.21-29.664 82.539 10.245-2.1979 24.173-7.564 41.07-15.373-62.886 90.361-46.455 111.08 29.148 79.839-5.7182 13.85-21.817 23.981-25.273 35.214-16.371 53.221 6.4511 76.847 68.361 39.556-19.411 52.522-14.798 71.408 51.959 50.691-7.672 81.472 30.258 74.019 89.977 24.078 9.3952 61.502 51.729 44.3 69.701-3.8018 38.354 58.502 69.988 49.224 108.99-2.5346 51.053 61.752 63.498-5.1864 86.176-38.019 37.625 53.72 56.816 23.171 70.968-30.415 26.871-8.1276 56.721-11.147 60.83-58.295 56.516-0.8222 85.96-21.412 58.295-86.176 46.294 0.156 43.607-30.301 36.751-63.364 23.483-14.26 17.769-46.767 15.208-77.304 26.525-134.66-33.712-98.823-55.761-124.19l-106.47-10.15c-366.91-258.13-335.98-62.26-441.01-21.54z" fill="#fff" stroke="#000" stroke-width="9.3963px"/>
<path d="m1240.3 1072.3-0.8557 26.177" fill="none" stroke="#000" stroke-width="6.9805"/>
<path d="m458.18 592.37c15.012 3.7712 39.242 7.3891 50.963 17.742" fill="none" stroke="#000" stroke-width="9.3963px"/>
<path d="m610.26 414.95-24.078 45.622-8.871 53.226 3.8018 36.751s41.82 59.562 38.019 65.899c-3.8019 6.3365 242.05-15.207 242.05-15.207l100.12 24.078 26.613-72.235-7.6036-86.176-153.34-111.52-216.71 59.562z" fill="#fff" stroke="#fff" stroke-width="9.3963px"/>
<path d="m574.77 541.68c-3.56-38.265 1.4511-81.366 29.386-124.86 61.835-96.267 196.45-194.44 319.32-246.29 29.643-5.1067 52.184 3.4422 70.279 20.542 43.586 41.189 61.374 131.99 90.461 201.06 12.4 16.345 22.654 23.028 31.735 24.436 17.655 2.7375 30.88-14.464 46.837-19.367-27.644 6.2038-21.14 112.43-121.42 40.156-17.794-12.824-30.756-37.91-58.533-98.451v144.47c-52.801-30.407-83.261-1.2409-116.59 20.277-14.961-30.419-29.516-62.705-57.187-77.473-60.384-32.227-139.12-22.577-164.48-18.983-73.239 10.384-69.996 89.447-69.813 134.47z" fill="#d3930f" stroke="#000" stroke-width="9.3963px"/>
<path transform="matrix(49.906 0 0 25.59 -25102 -18605)" d="m527.39 742.52a0.76295 1.5259 0 1 1-1.5259 0 0.76295 1.5259 0 1 1 1.5259 0z" fill="#ff0009" stroke="#000" stroke-width=".34914"/>
<path d="m904.46 262.18c0 34.855-27.454 63.111-61.319 63.111s-64.007-32.289-64.007-67.144c30.822-29.054 71.18-51.252 87.195-56.513 25.409 7.707 38.131 31.897 38.131 60.545z" fill="#ff0009" stroke="#000" stroke-width="8.6946"/>
<path transform="matrix(74.188 0 0 37.853 -38164 -27719)" d="m527.39 742.52a0.76295 1.5259 0 1 1-1.5259 0 0.76295 1.5259 0 1 1 1.5259 0z" fill="#ff0009" stroke="#000" stroke-width=".1508"/>
<path d="m807.96 421.29c26.06 14.958 58.44 26.295 81.098 9.2811 43.445-21.809 70.814-91.636 87.708-140.6 34.524-126.26-5.5695 76.286 97.701 136.98 15.978 7.6525 37.329 5.6333 68.056-13.264l-15.207 36.751s-12.673 10.138-17.742 11.406c-5.0691 1.2673-32.949-6.3365-39.286-7.6037-6.3365-1.2673-44.355-29.148-44.355-29.148l-43.088-84.908 1.2673 40.553-1.2673 101.38-32.95-8.871-25.346-2.5346-45.622 22.811-13.94 11.406-26.613-50.692-30.415-32.95z" stroke="#000" stroke-width="2.8189"/>
<path d="m650.81 359.19-36.751 40.553-15.207 21.544c21.39-8.4112 42.507-17.505 67.166-17.742-8.1523-11.702-15.381-24.327-15.207-44.355z" stroke="#000" stroke-width="2.8189"/>
<path d="m757.82 366.09c0 12.739-4.1337 24.504-11.112 34.006-29.434 2.6029-60.825 3.2995-87.378 4.4672-9.1655-10.154-14.754-23.655-14.754-38.474 15.494-19.259 36.206-41.178 51.148-51.347 7.5254-5.1218 6.2266-5.2563 16.944-4.626 25.772 5.3514 45.152 28.378 45.152 55.973z" fill="#ff0009" stroke="#000" stroke-width="7.9504"/>
<path d="m558.3 637.99c-14.758 47.212 13.428 98.388 26.143 142.96 7.1668 25.272 16.153 49.373 36.13 65.666 30.559 17.843 77.437-4.9082 113.09-21.319 27.549-12.939 64.098-32.115 84.653-45.893 35.268-23.64 47.41-42.739 59.34-69.18 46.31 7.7543 64.522-45.454 77.696-82.868 6.4893-24.58 3.6398-47.82-19.317-60.898-13.842 2.047-24.598-2.0759-54.577 32.245 20.045-33.045-2.3811-44.854-13.94-62.097" fill="#fff" stroke="#000" stroke-linecap="round" stroke-width="9.3963px"/>
<path d="m631.8 544.85-50.691 0.6333" fill="none" stroke="#000" stroke-width="9.3963px"/>
<path transform="matrix(7.6984 0 0 7.2543 -3086.3 -4999.9)" d="m481.13 763.7a2.3365 2.4796 0 1 1-4.6731 0 2.3365 2.4796 0 1 1 4.6731 0z" stroke="#000" stroke-linecap="round" stroke-linejoin="round"/>
<path d="m601.39 501.13-1.2673 67.8" fill="none" stroke="#000" stroke-width="9.3963px"/>
<path d="m632.55 538.7c1.0632 16.082-0.76955 27.82-4.4805 36.74" fill="none" stroke="#000" stroke-linecap="round" stroke-width="9.3963px"/>
<path d="m615.65 679.5c14.618 0.85351 42.713-1.8472 57.354-3.0412 30.32-8.6322 57.205-26.291 85.531-43.539 34.22-16.316 66.033-29.277 66.985 0.7799-2.1633 14.822-8.0346 28.32-21.664 39.048-10.696 5.9058-19.148 12.065-27.156 21.168-11.299 13.324-21.457 27.421-31.134 41.88-10.448 15.612-20.335 31.645-30.492 47.582-23.912 29.457-37.836 74.896-85.168 66.882-26.143-17.038-32.667-45.376-46.89-71.602-3.1682-0.6333-19.643-65.899-19.643-65.899l-8.871-65.265c33.517-0.41762 35.018 29.381 61.148 32.006z" fill="none" stroke="#000" stroke-width="9.3963px"/>
<path d="m566.59 663.08c-35.248 0-63.706-27.328-63.822-61.037-0.11558-33.296 26.194-57.949 63.822-61.037 146.71 36.695 95.704 117.43 0 122.07z" fill="#960007" stroke="#000" stroke-linecap="round" stroke-linejoin="round" stroke-width="9.3963"/>
<path d="m959.89 629.82c65.98-6.1257 83.541-26 79.344-52.053-1.9437-12.066-13.406-15.012-22.035-28.977 6.2868-49.823-19.54-46.745-40.654-70.72" fill="#fff" stroke="#000" stroke-width="9.3963px"/>
<path d="m1017.2 542.9c-11.671 7.8314-21.142 9.0628-30.468 9.8572" fill="none" stroke="#000" stroke-linecap="round" stroke-width="9.3963px"/>
<path d="m658.8 512.43c11.58-28.09 23.64-38.264 51.619-47.349 47.076-6.5834 81.538 46.462 117.75 91.258" fill="none" stroke="#000" stroke-linecap="round" stroke-width="14.796"/>
<path d="m623.85 508.85c-5.256-25.994-13.626-46.892-44.805-30.468" fill="none" stroke="#000" stroke-linecap="round" stroke-width="14.796"/>
<path d="m758.26 509.74c20.166 39.548 12.195 71.62-6.4361 90.367-65.697 46.215-100.95-11.17-101.1-53.626" fill="none" stroke="#000" stroke-linecap="round" stroke-width="9.3963px"/>
<path transform="matrix(9.3963 0 0 9.3963 -3779.6 -6613.3)" d="m481.13 763.7a2.3365 2.4796 0 1 1-4.6731 0 2.3365 2.4796 0 1 1 4.6731 0z" stroke="#000" stroke-linecap="round" stroke-linejoin="round"/>
<path d="m717.04 506.16v106.64" fill="none" stroke="#000" stroke-width="9.3963px"/>
<path d="m671.09 561.96 95.68 1.2673" fill="none" stroke="#000" stroke-width="9.3963px"/>
<path d="m927.71 620.25c-0.591-25.57-5.3407-24.526-11.018-17.545-7.4041 8.1866-5.5682 18.937-7.3025 29.541-3.1577 11.571-4.3055 16.332-11.461 28.557" fill="none" stroke="#000" stroke-linecap="round" stroke-width="9.3963px"/>
<path d="m959.22 627.13c25.908-9.1853 29.142-23.851 35.031-39.196" fill="none" stroke="#000" stroke-linecap="round" stroke-width="15.034"/>
<path d="m724.42 687.74c16.868 11.298-37.934 63.786-61.71 89.128-27.627 25.588-49.173 12.26-64.851-38.619-21.038-38.775-27.407-50.147 4.0453-36.85 43.286 29.004 77.225-10.941 122.52-13.658z" fill="#dadada" stroke="#000" stroke-width="9.3963px"/>
<path d="m613.09 714.05c8.7103 18.749 9.3799 35.074 30.444 36.509 18.779-1.9374 27.788-21.293 41.245-38.301l19.714-22.403-34.052 16.13-21.507 10.753-25.091-2.6884-15.234-10.753 4.4806 10.753z" stroke="#000" stroke-width="3.7585"/>
<path d="m521.79 1020.1c3.214-33.142 7.5038-68.006 38.049-87.699 15.596-8.5237 30.273 6.5748 14.936 51.549l-43.088 72.235" fill="none" stroke="#000" stroke-width="9.3963px"/>
<path d="m559.57 930.74 48.157-35.484 55.761-46.89" fill="none" stroke="#000" stroke-width="9.3963px"/>
<path d="m506.34 874.98 114.06-25.346" fill="none" stroke="#000" stroke-width="9.3963px"/>
<path d="m448.05 821.75c6.3364 0 150.81-5.0691 150.81-5.0691" fill="none" stroke="#000" stroke-width="9.3963px"/>
<path d="m427.77 750.78c59.944-0.6831 112.58 27.87 166.01 53.226" fill="none" stroke="#000" stroke-width="9.3963px"/>
<path d="m436.64 714.03c45.821 3.0282 91.558 5.1356 140.67 44.355" fill="none" stroke="#000" stroke-width="9.3963px"/>
<path d="m432.84 659.54c69.3 3.4544 95.045 45.624 136.87 73.503" fill="none" stroke="#000" stroke-width="9.3963px"/>
<path d="m430.3 612.65c45.437 23.181 94.516 39.079 130.53 81.106" fill="none" stroke="#000" stroke-width="9.3963px"/>
<path d="m718.72 835.93c31.19 16.469 73.914 23.402 101.91 97.34" fill="none" stroke="#000" stroke-width="9.3963px"/>
<path d="m725.58 939.61-8.871-106.45" fill="none" stroke="#000" stroke-width="9.3963px"/>
<path d="m622.93 1075.2c23.633-34.835 29.432-68.224 28.231-108.66-21.982-67.539-52.22-3.6895-51.615 66.799 3.8975 22.402 1.6703 44.803-14.635 67.205" fill="none" stroke="#000" stroke-width="9.3963px"/>
<path d="m711.38 1094.7c3.5492-17.413 12.718-46.259 19.144-64.634 8.6877-24.841 15.148-57.645 6.2509-81.793-11.955-26.538-44.102-30.595-55.438 0.1926-1.1108 23.314-3.7513 46.627 3.2176 69.941 9.9998 29.369 4.5689 38.163 5.5374 55.49" fill="none" stroke="#000" stroke-width="9.3963px"/>
<path d="m482.26 997.41c26.443-25.436 31.109-60.437 34.119-95.752 1.7513-31.762-8.7927-38.933-40.456-3.8664-23.26 34.009-27.756 65.672-24.078 96.314" fill="none" stroke="#000" stroke-width="9.3963px"/>
<path d="m451.85 821.75c19.519 17.262 50.582 15.354-19.16 106.54" fill="none" stroke="#000" stroke-width="9.3963px"/>
<path d="m393.55 774.86c32.48-7.1912 25.032 21.6 30.415 35.484" fill="none" stroke="#000" stroke-width="9.3963px"/>
<path d="m363.14 739.38c33.314-21.959 47.354-13.078 46.89 19.009" fill="none" stroke="#000" stroke-width="9.3963px"/>
<path d="m805.42 1066.3c23.716-34.11 31.244-77.958 20.985-118.07-6.0537-18.512-16.865-25.512-35.365 2.9242-4.3976 14.045-3.0049 37.354 8.3494 76.602l7.2979 39.807" fill="none" stroke="#000" stroke-width="9.3963px"/>
<path d="m890.33 1024.5c11.537-23.509 22.064-46.052 23.901-72.222 0.4257-34.989-16.821-65.893-30.185-49.709-6.3504 36.907-19.715 62.792-3.8536 134.6" fill="none" stroke="#000" stroke-width="9.3963px"/>
<path d="m739.52 825.55c55.166 13.272 108.23 32.145 153.34 72.235" fill="none" stroke="#000" stroke-width="9.3963px"/>
<path d="m783.88 798.94c69.668 15.392 115.85 41.335 175.88 69.58" fill="none" stroke="#000" stroke-width="9.3963px"/>
<path d="m965.1 987.76c25.786-20.523 9.8768-172.84-25.217-99.573-11.312 31.924-2 63.848 10.009 95.771" fill="none" stroke="#000" stroke-width="9.3963px"/>
<path d="m1025.9 934.54c18.637-53.711 28.858-123.45 8.7993-112.49-37.237 27.718-29.576 53.778-18.938 97.285" fill="none" stroke="#000" stroke-width="9.3963px"/>
<path d="m1036.1 821.75c-45.946-36.949-113.14-31.402-174.89-36.751" fill="none" stroke="#000" stroke-width="9.3963px"/>
<path d="m1072.8 753.32c-66.009-30.795-136.1-12.532-205.3-5.0691" fill="none" stroke="#000" stroke-width="9.3963px"/>
<path d="m1123.5 707.69c-24.81-16.092-49.475-27.777-40.261 19.804 1.6199 8.3648 13.241 24.656 16.696 36.982" fill="none" stroke="#000" stroke-width="9.3963px"/>
<path d="m1093.1 695.02c-77.749-10.382-138.74 4.3723-196.43 24.078" fill="none" stroke="#000" stroke-width="9.3963px"/>
<path d="m1075.4 852.16c-3.984-18.536-17.627-34.76-19.982-49.742-7.8891-50.188 7.263-73.491 50.397-12.355" fill="none" stroke="#000" stroke-width="9.3963px"/>
<path d="m1215.2 1053.1c3.2412-1.7696 1.4296-3.2123 4.007-5.2382 8.6189-6.7748 18.773-15.522 24.978-25.958 3.0793 14.885 12.708 20.757 21.506 29.935 1.579 1.6471 1.1255 3.0429 2.7658 5.0023zm56.033 8.3295c1.7197 9.8863-4.4544 19.217-13.79 20.841-9.3358 1.6239-18.298-5.074-20.018-14.96-1.7196-9.8862 4.4544-19.217 13.79-20.841 9.336-1.6239 18.298 5.074 20.018 14.96zm-28.353 0.2843c1.7196 9.8862-4.4544 19.217-13.79 20.841-9.3356 1.6238-18.298-5.0741-20.018-14.96-1.7198-9.8862 4.4543-19.217 13.79-20.841 9.3361-1.6239 18.298 5.074 20.018 14.96z" stroke="#000" stroke-width=".78433px"/>
<path d="m966.37 660.8c55.338-25.299 110.68-2.9557 166.01-1.2674" fill="none" stroke="#000" stroke-width="9.3963px"/>
<path d="m1107 607.58c-42.969 5.4546-98.358 5.6364-109.5 23.822" fill="none" stroke="#000" stroke-width="9.3963px"/>
<path d="m661.2 852.07c83.565-31.125 154.04-86.609 208.87-163.47 33.049 6.1713 53.232-26.258 76.544-49.299l-16.866 46.705-22.055 20.758h-32.434l-9.0815 24.65-29.839 38.921-23.913 15.94-55.225 32.062z" stroke="#000" stroke-width="1px"/>
<path d="m985.54 618.55c24.277-9.5768 34.584-29.631 45.407-49.299l9.0814 19.46-25.947 33.731-42.813 6.4868 14.271-10.379z" stroke="#000" stroke-width="1px"/>
<path d="m515.9 638.01c46.691 22.157 97.464 2.3865 136.22-27.893 2.9569 14.956-7.8146 26.202-24.052 34.313-42.08 21.021-98.521 18.077-112.17-6.4204z" stroke="#000" stroke-width="1px"/>
<path d="m906.4 241.67c-9.1514-42.034 3.764-55.593 42.164-67.462l-27.244-3.2434-41.515 17.514-21.406 9.0815 30.488 19.46z" stroke="#000" stroke-width="1px"/>
<path d="m1176.6 430.43 27.569-1.946 12.325-27.244-7.1354-27.893-18.812-10.703c1.1311 4.2614 6.3786 4.0808 8.6339 9.1991 4.5372 23.184 6.6306 42.808-12.116 57.035-1.7945 1.8699-8.3064-0.20253-10.464 1.5525z" stroke="#000" stroke-width="1px"/>
<path d="m993.33 546.55c6.1194-14.192 6.4961-18.607 5.8381-33.082l3.8921 18.163c5.0448-8.7882 3.95-14.058 1.946-26.596l11.676 27.244-0.6486 7.7841-20.109 14.92z" stroke="#000" stroke-width="1px"/>

<rect transform="rotate(6.1632)" x="1320.6" y="813.31" width="156.14" height="219.87" ry="28.165" fill="#fff" stroke="#000" stroke-linecap="round" stroke-linejoin="round" stroke-width=".43419"/>
<text transform="rotate(1.1785)" x="1201.913" y="952.70239" fill="#000000" font-family="Sans" font-size="20.84px" letter-spacing="0px" word-spacing="0px" style="line-height:125%" xml:space="preserve">
    <tspan x="1201.913" y="952.70239">A</tspan>
  </text>
<path d="m1288.7 1075.6-2.6795 26.053" fill="none" stroke="#000" stroke-width="6.9805"/>
<path d="m1265 1054.6c3.3567-1.5392 1.6501-3.1047 4.3626-4.9459 9.0704-6.1571 19.81-14.174 26.728-24.153 2.0335 15.063 11.229 21.593 19.365 31.362 1.4604 1.7532 0.9105 3.114 2.4102 5.1829zm55.316 12.218c1.026 9.9821-5.784 18.86-15.21 19.828-9.4263 0.9688-17.9-6.338-18.925-16.32-1.0259-9.9821 5.7839-18.86 15.21-19.828 9.4264-0.9688 17.9 6.338 18.926 16.32zm-28.304-1.6942c1.0259 9.9821-5.784 18.86-15.21 19.828-9.4262 0.9689-17.9-6.338-18.925-16.32-1.026-9.9821 5.7838-18.86 15.21-19.828 9.4265-0.9689 17.9 6.338 18.926 16.32z" stroke="#000" stroke-width=".78433px"/>
<text transform="rotate(5.1783)" x="1320.3899" y="861.00018" fill="#000000" font-family="Sans" font-size="20.84px" letter-spacing="0px" word-spacing="0px" style="line-height:125%" xml:space="preserve">
    <tspan x="1320.3899" y="861.00018">A</tspan>
  </text>
<text transform="rotate(185.18)" x="-1448.6378" y="-1033.095" fill="#000000" font-family="Sans" font-size="20.84px" letter-spacing="0px" word-spacing="0px" style="line-height:125%" xml:space="preserve">
    <tspan x="-1448.6378" y="-1033.095">A</tspan>
  </text>
<text transform="rotate(-11.307)" x="894.99597" y="1191.6901" fill="#000000" font-family="Sans" font-size="20.84px" letter-spacing="0px" word-spacing="0px" style="line-height:125%" xml:space="preserve">
    <tspan x="894.99597" y="1191.6901">A</tspan>
  </text>
</svg>
